<svg viewBox="0 0 21 22" fill="none" xmlns="http://www.w3.org/2000/svg">
  <path d="M18.75 21.5c.61 0 1.125-.188 1.594-.656.422-.422.656-.938.656-1.594V2.75c0-.61-.234-1.125-.656-1.594C19.875.734 19.359.5 18.75.5H2.25c-.656 0-1.172.234-1.594.656C.187 1.625 0 2.141 0 2.75v16.5c0 .656.188 1.172.656 1.594.422.468.938.656 1.594.656h16.5zm-9.61-4.594c-.14.188-.328.235-.515.235-.234 0-.422-.047-.516-.235l-4.875-4.875c-.187-.14-.234-.328-.234-.515 0-.188.047-.375.234-.563l1.032-1.031a.753.753 0 01.515-.235c.188 0 .375.094.563.235l3.281 3.281 7.031-7.031a.753.753 0 01.516-.234c.187 0 .375.093.562.234l1.032 1.031c.14.188.234.375.234.563a.753.753 0 01-.234.515L9.14 16.906z" fill="currentColor"/>
</svg>
