<svg viewBox="0 0 25 22" fill="none" xmlns="http://www.w3.org/2000/svg">
  <path d="M13 .5C6.344.5 1 4.906 1 10.25c0 2.25.89 4.313 2.438 5.953-.657 1.828-2.11 3.422-2.157 3.422-.328.328-.375.797-.234 1.219.187.422.61.656 1.078.656 2.86 0 5.156-1.172 6.516-2.156C10 19.766 11.453 20 13 20c6.61 0 12-4.36 12-9.75C25 4.906 19.61.5 13 .5zm0 17.25c-1.266 0-2.531-.188-3.703-.563l-1.078-.328-.89.657c-.657.468-1.595.984-2.72 1.359A8.767 8.767 0 005.547 17l.516-1.313-.985-1.03c-.844-.891-1.828-2.391-1.828-4.407 0-4.125 4.36-7.5 9.75-7.5 5.344 0 9.75 3.375 9.75 7.5 0 4.172-4.406 7.5-9.75 7.5z" fill="currentColor"/>
</svg>
