<svg viewBox="0 0 27 24" fill="none" xmlns="http://www.w3.org/2000/svg">
  <path d="M18.89 3.89a.506.506 0 00-.328-.14.425.425 0 00-.328.14L7.97 14.157 7.5 18.47c-.047.328.047.61.234.797.188.187.47.28.797.234l4.313-.469L23.109 8.766a.426.426 0 00.141-.329.507.507 0 00-.14-.328l-4.22-4.218zm7.594-1.078c.328.376.516.844.516 1.313 0 .516-.188.938-.516 1.266l-1.687 1.687a.506.506 0 01-.328.14.426.426 0 01-.328-.14L19.92 2.86a.425.425 0 01-.14-.328c0-.094.047-.234.14-.328L21.61.516A1.73 1.73 0 0122.875 0c.469 0 .938.188 1.313.516l2.296 2.296zM18 16.22c0-.14.047-.282.188-.375l1.875-1.875c.14-.188.328-.235.562-.14.234.093.375.28.375.515v7.406c0 .656-.234 1.172-.656 1.594-.469.468-.985.656-1.594.656H2.25c-.656 0-1.172-.188-1.594-.656C.187 22.922 0 22.406 0 21.75V5.25c0-.61.188-1.125.656-1.594A2.155 2.155 0 012.25 3h13.406c.235 0 .422.14.516.375.094.234.047.422-.14.563l-1.876 1.921a.532.532 0 01-.375.141H3v15h15v-4.781z" fill="currentColor"/>
</svg>
