<svg viewBox="0 0 18 24" fill="none" xmlns="http://www.w3.org/2000/svg">
  <path d="M13.5 11.625c0-.281-.281-.563-.563-.563H5.064a.57.57 0 00-.563.563v1.313c0 .328.234.562.563.562h7.875a.57.57 0 00.562-.563v-1.312zM12.937 15H5.064a.57.57 0 00-.563.563v1.312c0 .328.234.563.563.563h7.875a.57.57 0 00.562-.563v-1.313c0-.28-.281-.562-.563-.562zM18 6.187c0-.562-.281-1.171-.703-1.593l-3.89-3.89C12.983.28 12.374 0 11.811 0H2.25A2.25 2.25 0 000 2.25v19.5A2.22 2.22 0 002.25 24h13.5A2.25 2.25 0 0018 21.75V6.187zm-6-3.75L15.563 6H12V2.437zm3.75 19.313H2.25V2.25h7.5v4.875c0 .656.469 1.125 1.125 1.125h4.875v13.5z" fill="currentColor"/>
</svg>
