<svg viewBox="0 0 24 20" fill="none" xmlns="http://www.w3.org/2000/svg">
  <path d="M3.75.25h-3C.328.25 0 .625 0 1v3c0 .422.328.75.75.75h3c.375 0 .75-.328.75-.75V1c0-.375-.375-.75-.75-.75zm0 7.5h-3c-.422 0-.75.375-.75.75v3c0 .422.328.75.75.75h3c.375 0 .75-.328.75-.75v-3c0-.375-.375-.75-.75-.75zm0 7.5h-3c-.422 0-.75.375-.75.75v3c0 .422.328.75.75.75h3c.375 0 .75-.328.75-.75v-3c0-.375-.375-.75-.75-.75zm19.5-6.375h-15c-.422 0-.75.375-.75.75v.75c0 .422.328.75.75.75h15c.375 0 .75-.328.75-.75v-.75c0-.375-.375-.75-.75-.75zm0 7.5h-15c-.422 0-.75.375-.75.75v.75c0 .422.328.75.75.75h15c.375 0 .75-.328.75-.75v-.75c0-.375-.375-.75-.75-.75zm0-15h-15c-.422 0-.75.375-.75.75v.75c0 .422.328.75.75.75h15c.375 0 .75-.328.75-.75v-.75c0-.375-.375-.75-.75-.75z" fill="currentColor"/>
</svg>
