<svg viewBox="0 0 21 24" fill="none" xmlns="http://www.w3.org/2000/svg">
  <path d="M12.563 19.5h1.124a.57.57 0 00.563-.563V8.813c0-.28-.281-.562-.563-.562h-1.124a.57.57 0 00-.563.563v10.124c0 .329.234.563.563.563zM20.25 3.75h-3.89l-1.594-2.625C14.39.515 13.546 0 12.844 0H8.109c-.703 0-1.546.516-1.921 1.125L4.593 3.75H.75c-.422 0-.75.375-.75.75v.75c0 .422.328.75.75.75h.75v15.75A2.22 2.22 0 003.75 24h13.5a2.25 2.25 0 002.25-2.25V6h.75c.375 0 .75-.328.75-.75V4.5c0-.375-.375-.75-.75-.75zM8.016 2.39c.046-.046.187-.14.234-.14h4.453c.047 0 .188.094.235.14l.796 1.36H7.22l.797-1.36zm9.234 19.36H3.75V6h13.5v15.75zM7.312 19.5h1.125A.57.57 0 009 18.937V8.813c0-.28-.281-.562-.563-.562H7.313a.57.57 0 00-.563.563v10.124c0 .329.234.563.563.563z" fill="currentColor"/>
</svg>
