<svg viewBox="0 0 27 24" fill="none" xmlns="http://www.w3.org/2000/svg">
  <path d="M24.75 13.5H18V12h3c1.969 0 3-2.39 1.547-3.797l-7.5-7.5a2.18 2.18 0 00-3.14 0l-7.5 7.5C2.952 9.61 3.983 12 6 12h3v1.5H2.25A2.25 2.25 0 000 15.75v6A2.22 2.22 0 002.25 24h22.5A2.25 2.25 0 0027 21.75v-6c0-1.219-1.031-2.25-2.25-2.25zM6 9.75l7.5-7.5 7.5 7.5h-5.25v7.5h-4.5v-7.5H6zm18.75 12H2.25v-6H9v1.5a2.22 2.22 0 002.25 2.25h4.5A2.25 2.25 0 0018 17.25v-1.5h6.75v6zm-1.875-3a1.14 1.14 0 00-1.125-1.125 1.11 1.11 0 00-1.125 1.125c0 .656.469 1.125 1.125 1.125a1.11 1.11 0 001.125-1.125z" fill="currentColor"/>
</svg>
