<svg viewBox="0 0 24 24" fill="none" xmlns="http://www.w3.org/2000/svg">
  <path d="M11.625.375c2.063 0 4.031.563 5.813 1.594a11.385 11.385 0 014.218 4.218C22.688 7.97 23.25 9.938 23.25 12c0 2.11-.563 4.031-1.594 5.813-1.031 1.78-2.437 3.234-4.218 4.265a11.482 11.482 0 01-5.813 1.547c-2.11 0-4.031-.516-5.813-1.547a11.635 11.635 0 01-4.265-4.265C.516 16.03 0 14.108 0 12c0-2.063.516-4.031 1.547-5.813C2.578 4.407 4.03 3 5.813 1.97 7.593.937 9.515.375 11.625.375zm0 4.5c-1.125 0-2.11.422-2.906 1.219C7.875 6.937 7.5 7.875 7.5 9c0 1.125.375 2.11 1.219 2.906.797.844 1.781 1.219 2.906 1.219 1.125 0 2.063-.375 2.906-1.219.797-.797 1.219-1.781 1.219-2.906 0-1.125-.422-2.063-1.219-2.906-.844-.797-1.781-1.219-2.906-1.219zm0 16.125a8.96 8.96 0 003.797-.844c1.219-.562 2.25-1.312 3.094-2.343-.47-.844-1.125-1.5-1.922-2.016-.844-.516-1.735-.797-2.719-.797-.094 0-.234.047-.328.047a5.716 5.716 0 01-1.922.328 5.529 5.529 0 01-1.922-.328c-.14 0-.234-.047-.328-.047a4.874 4.874 0 00-2.719.797 5.287 5.287 0 00-1.922 2.015 8.317 8.317 0 003.047 2.344 9.014 9.014 0 003.844.844z" fill="currentColor"/>
</svg>
