<svg width="77" height="34" viewBox="0 0 77 34" fill="none" xmlns="http://www.w3.org/2000/svg">
<path d="M13.3733 33.3223C14.3068 33.3223 15.2212 33.227 16.1165 33.0365V33.0175C16.3451 32.5222 16.3832 31.8935 16.2308 31.2839C16.1546 30.9982 16.0403 30.7505 15.907 30.5219C15.7546 30.2933 15.6403 30.0076 15.545 29.7028C15.3736 29.0932 15.4307 28.4645 15.6593 27.9692C15.8879 27.4739 15.926 26.8453 15.7736 26.2357C15.6974 25.9499 15.5831 25.7023 15.4498 25.4737C15.2974 25.2451 15.1831 24.9593 15.0878 24.6545C14.9164 24.0449 14.9735 23.4163 15.2021 22.921C15.4307 22.4257 15.4688 21.797 15.3164 21.1874C15.2402 20.9017 15.1259 20.654 14.9926 20.4254C14.8402 20.1968 14.7259 19.9111 14.6306 19.6063C14.4592 18.9967 14.5163 18.368 14.7449 17.8727C14.9735 17.3774 15.0116 16.7488 14.8592 16.1392C14.783 15.8534 14.6687 15.6058 14.5354 15.3772C14.383 15.1486 14.2687 14.8628 14.1734 14.558C14.002 13.9484 14.0591 13.3198 14.2877 12.8245C14.3258 12.7292 14.3639 12.6149 14.402 12.5197H12.7256C12.6494 12.7864 12.5542 13.015 12.4018 13.2245C12.097 13.6817 11.9446 14.2723 12.0017 14.92C12.0208 15.2248 12.097 15.5105 12.2113 15.7772C12.3065 16.0249 12.3637 16.2916 12.4018 16.5773C12.4589 17.225 12.3065 17.8156 12.0017 18.2728C11.6969 18.73 11.5445 19.3205 11.6017 19.9682C11.6207 20.273 11.6969 20.5588 11.8112 20.8255C11.9065 21.0731 11.9636 21.3398 12.0017 21.6256C12.0589 22.2733 11.9065 22.8638 11.6017 23.321C11.2969 23.7782 11.1445 24.3688 11.2016 25.0165C11.2207 25.3213 11.2969 25.607 11.4112 25.8737C11.5064 26.1214 11.5636 26.3881 11.6017 26.6738C11.6588 27.3215 11.5064 27.9121 11.2016 28.3693C10.8968 28.8265 10.7444 29.417 10.8016 30.0647C10.8206 30.3695 10.8968 30.6553 11.0111 30.922C11.1064 31.1696 11.1635 31.4363 11.2016 31.7221C11.2397 32.2174 11.1635 32.6746 10.973 33.0746C11.716 33.2461 12.5351 33.3223 13.3733 33.3223Z" fill="#25408F"/>
<path d="M22.9174 27.3786C22.4983 27.0357 22.1744 26.5023 22.0411 25.8737C21.9839 25.5879 21.9649 25.3212 22.003 25.0545C22.0411 24.7688 22.022 24.483 21.9649 24.1782C21.8315 23.5496 21.5267 23.0162 21.1076 22.6733C20.6885 22.3304 20.3647 21.797 20.2313 21.1683C20.1742 20.8826 20.1551 20.6159 20.1932 20.3492C20.2313 20.0634 20.2123 19.7586 20.1551 19.4729C20.0218 18.8442 19.717 18.3108 19.2979 17.9679C18.8788 17.625 18.5549 17.0916 18.4216 16.463C18.3644 16.1772 18.3454 15.9105 18.3835 15.6438C18.4216 15.3581 18.4025 15.0533 18.3454 14.7675C18.212 14.1389 17.9072 13.6055 17.4881 13.2626C17.2786 13.0911 17.0881 12.8625 16.9357 12.6149H15.1069C15.2021 12.9197 15.3545 13.1864 15.545 13.415C15.8879 13.8341 16.1165 14.4056 16.1356 15.0533C16.1356 15.3581 16.0975 15.6629 16.0213 15.9296C15.9451 16.1772 15.926 16.463 15.926 16.7487C15.9451 17.3964 16.1546 17.9679 16.5166 18.387C16.8595 18.8061 17.0881 19.3776 17.1071 20.0253C17.1071 20.3301 17.069 20.6349 16.9928 20.9016C16.9166 21.1493 16.8976 21.435 16.8976 21.7208C16.9166 22.3685 17.1262 22.94 17.4881 23.3591C17.8501 23.7782 18.0596 24.3497 18.0787 24.9974C18.0787 25.3022 18.0406 25.607 17.9644 25.8737C17.8882 26.1213 17.8691 26.4071 17.8691 26.6928C17.8882 27.3405 18.0977 27.912 18.4597 28.3311C18.8026 28.7502 19.0312 29.3217 19.0502 29.9694C19.0502 30.2742 19.0121 30.579 18.9359 30.8457C18.8597 31.0934 18.8407 31.3791 18.8407 31.6649C18.8407 31.8554 18.8597 32.0268 18.8978 32.1983C20.2885 31.5506 21.5458 30.6743 22.6697 29.5694C23.0126 29.2265 23.3365 28.8645 23.6413 28.4835C23.4698 27.9882 23.2222 27.6263 22.9174 27.3786Z" fill="#25408F"/>
<path d="M7.84845 32.1222C7.88655 31.9508 7.9056 31.7793 7.9056 31.5888C7.9056 31.3031 7.88655 31.0173 7.81035 30.7697C7.73415 30.503 7.69605 30.1982 7.69605 29.8934C7.7151 29.2457 7.92465 28.6742 8.2866 28.2551C8.64855 27.836 8.8581 27.2645 8.87715 26.6168C8.87715 26.331 8.8581 26.0453 8.7819 25.7976C8.7057 25.5309 8.6676 25.2261 8.6676 24.9213C8.68665 24.2736 8.8962 23.7021 9.25815 23.283C9.6201 22.8639 9.82965 22.2924 9.8487 21.6447C9.8487 21.359 9.82965 21.0732 9.75345 20.8256C9.67725 20.5589 9.63915 20.2541 9.63915 19.9493C9.6582 19.3016 9.86775 18.7301 10.2297 18.311C10.5916 17.8919 10.8012 17.3204 10.8202 16.6727C10.8202 16.3869 10.8012 16.1012 10.725 15.8535C10.6488 15.5868 10.6107 15.282 10.6107 14.9772C10.6297 14.3295 10.8393 13.758 11.2012 13.3389C11.3917 13.1103 11.5441 12.8436 11.6394 12.5388H9.8106C9.6582 12.7865 9.48675 13.0151 9.25815 13.1865C8.83905 13.5294 8.5152 14.0628 8.4009 14.6915C8.34375 14.9963 8.3247 15.3011 8.3628 15.5678C8.38185 15.8345 8.38185 16.1012 8.3247 16.3869C8.19135 17.0156 7.88655 17.549 7.4484 17.8919C7.0293 18.2348 6.70545 18.7682 6.59115 19.3968C6.534 19.7016 6.51495 20.0064 6.55305 20.2731C6.5721 20.5398 6.5721 20.8065 6.51495 21.0923C6.3816 21.7209 6.0768 22.2543 5.63865 22.5972C5.21955 22.9401 4.8957 23.4735 4.7814 24.1022C4.72425 24.407 4.7052 24.7118 4.7433 24.9785C4.76235 25.2452 4.76235 25.5119 4.7052 25.7976C4.57185 26.4263 4.26705 26.9597 3.8289 27.3026C3.52409 27.5502 3.27645 27.9122 3.105 28.3313C3.4098 28.7123 3.73365 29.0742 4.07655 29.4171C5.18145 30.5982 6.4578 31.4745 7.84845 32.1222Z" fill="#25408F"/>
<path d="M12.7062 12.5577H11.6394C11.5441 12.8625 11.3917 13.1292 11.2012 13.3578C10.8393 13.7769 10.6297 14.3484 10.6107 14.9961C10.6107 15.3009 10.6488 15.6057 10.725 15.8724C10.8012 16.1201 10.8202 16.4058 10.8202 16.6916C10.8012 17.3393 10.5916 17.9108 10.2297 18.3299C9.88677 18.749 9.65817 19.3205 9.63912 19.9682C9.63912 20.273 9.67722 20.5778 9.75342 20.8445C9.82962 21.0921 9.84867 21.3779 9.84867 21.6636C9.82962 22.3113 9.62007 22.8828 9.25812 23.3019C8.91522 23.721 8.68662 24.2925 8.66757 24.9402C8.66757 25.245 8.70567 25.5498 8.78187 25.8165C8.85807 26.0642 8.87712 26.3499 8.87712 26.6357C8.85807 27.2834 8.64852 27.8549 8.28657 28.274C7.94367 28.6931 7.71507 29.2646 7.69602 29.9123C7.69602 30.2171 7.73412 30.5219 7.81032 30.7886C7.88652 31.0362 7.90557 31.322 7.90557 31.6077C7.90557 31.7982 7.88652 31.9697 7.84842 32.1411C8.81997 32.5983 9.84867 32.9222 10.9155 33.1317C11.106 32.7317 11.1822 32.2745 11.1441 31.7792C11.125 31.4934 11.0488 31.2267 10.9536 30.9791C10.8393 30.7124 10.7631 30.4266 10.744 30.1218C10.6869 29.4932 10.8393 28.8836 11.1441 28.4264C11.4489 27.9692 11.6013 27.3786 11.5441 26.7309C11.5251 26.4452 11.4489 26.1785 11.3536 25.9308C11.2393 25.6641 11.1631 25.3784 11.1441 25.0736C11.0869 24.4449 11.2393 23.8353 11.5441 23.3781C11.8489 22.9209 12.0013 22.3304 11.9442 21.6827C11.9251 21.3969 11.8489 21.1302 11.7537 20.8826C11.6394 20.6159 11.5632 20.3301 11.5441 20.0253C11.487 19.3967 11.6394 18.7871 11.9442 18.3299C12.249 17.8727 12.4014 17.2821 12.3442 16.6344C12.3252 16.3487 12.249 16.082 12.1537 15.8343C12.0394 15.5676 11.9632 15.2819 11.9442 14.9771C11.887 14.3484 12.0394 13.7388 12.3442 13.2816C12.5347 13.053 12.63 12.8054 12.7062 12.5577Z" fill="#C7C8CA"/>
<path d="M8.38218 15.5867C8.34408 15.3009 8.36313 15.0152 8.42028 14.7104C8.55363 14.0817 8.85843 13.5483 9.27753 13.2054C9.48708 13.034 9.67758 12.8054 9.82998 12.5577H0.228783V20.1968C0.228783 23.2257 1.23843 26.0832 3.10533 28.4073C3.25773 27.9882 3.50538 27.6453 3.82923 27.3786C4.24833 27.0357 4.57218 26.5023 4.70553 25.8737C4.76268 25.5879 4.78173 25.3212 4.74363 25.0545C4.70553 24.7688 4.72458 24.483 4.78173 24.1782C4.91508 23.5496 5.21988 23.0162 5.63898 22.6733C6.05808 22.3304 6.38193 21.797 6.51528 21.1683C6.57243 20.8826 6.59148 20.6159 6.55338 20.3492C6.51528 20.0634 6.53433 19.7586 6.59148 19.4729C6.72483 18.8442 7.02963 18.3108 7.44873 17.9679C7.86783 17.625 8.19168 17.0916 8.32503 16.463C8.38218 16.1391 8.40123 15.8534 8.38218 15.5867Z" fill="#C7C8CA"/>
<path d="M16.9353 12.5578C17.0877 12.8055 17.2591 13.0341 17.4877 13.2055C17.9068 13.5484 18.2307 14.0818 18.345 14.7105C18.4021 15.0153 18.4212 15.3201 18.3831 15.5868C18.364 15.8535 18.364 16.1202 18.4212 16.4059C18.5545 17.0346 18.8593 17.568 19.2975 17.9109C19.7166 18.2538 20.0404 18.7872 20.1547 19.4158C20.2119 19.7206 20.2309 20.0254 20.1928 20.2921C20.1738 20.5588 20.1928 20.8255 20.2309 21.1113C20.3643 21.7399 20.6691 22.2733 21.1072 22.6162C21.5263 22.9591 21.8502 23.4925 21.9645 24.1212C22.0216 24.426 22.0407 24.7308 22.0026 24.9975C21.9835 25.2642 21.9835 25.5309 22.0407 25.8166C22.174 26.4453 22.4788 26.9787 22.917 27.3216C23.2218 27.5692 23.4694 27.9312 23.6409 28.3503C25.5078 26.0262 26.5174 23.1687 26.5174 20.1397V12.5007H16.9353V12.5578Z" fill="#C7C8CA"/>
<path d="M17.8685 26.6168C17.8685 26.331 17.8875 26.0453 17.9637 25.7976C18.0399 25.5309 18.078 25.2261 18.078 24.9213C18.059 24.2736 17.8494 23.7021 17.4875 23.283C17.1255 22.8639 16.916 22.2924 16.8969 21.6447C16.8969 21.359 16.916 21.0732 16.9922 20.8256C17.0684 20.5589 17.1065 20.2541 17.1065 19.9493C17.0874 19.3016 16.8779 18.7301 16.5159 18.311C16.154 17.8919 15.9444 17.3204 15.9254 16.6727C15.9254 16.3869 15.9444 16.1012 16.0206 15.8535C16.0968 15.5868 16.1349 15.282 16.1349 14.9772C16.1159 14.3295 15.9063 13.758 15.5444 13.3389C15.3539 13.1103 15.2015 12.8436 15.1062 12.5388H14.3823C14.3442 12.6531 14.3252 12.7484 14.268 12.8436C14.0394 13.3389 14.0013 13.9485 14.1537 14.5772C14.2299 14.882 14.3442 15.1487 14.5157 15.3963C14.649 15.6249 14.7633 15.8726 14.8395 16.1583C15.011 16.787 14.9538 17.3966 14.7252 17.8919C14.4966 18.3872 14.4585 18.9968 14.6109 19.6254C14.6871 19.9302 14.8014 20.1969 14.9729 20.4446C15.1062 20.6732 15.2205 20.9208 15.2967 21.2066C15.4682 21.8352 15.411 22.4448 15.1824 22.9401C14.9538 23.4354 14.9157 24.045 15.0681 24.6737C15.1443 24.9785 15.2586 25.2452 15.4301 25.4928C15.5634 25.7214 15.6777 25.9691 15.7539 26.2548C15.9254 26.8835 15.8682 27.4931 15.6396 27.9884C15.411 28.4837 15.3729 29.0933 15.5253 29.7219C15.6015 30.0267 15.7158 30.2934 15.8873 30.5411C16.0206 30.7697 16.1349 31.0173 16.2111 31.3031C16.3826 31.9317 16.3254 32.5413 16.0968 33.0366V33.0557C17.0493 32.8461 17.9828 32.5413 18.8781 32.1222C18.84 31.9508 18.821 31.7793 18.821 31.5888C18.821 31.3031 18.84 31.0173 18.9162 30.7697C18.9924 30.503 19.0305 30.1982 19.0305 29.8934C19.0115 29.2457 18.8019 28.6742 18.44 28.2551C18.0971 27.836 17.8875 27.2645 17.8685 26.6168Z" fill="#C7C8CA"/>
<path d="M3.12407 7.56672C3.21932 7.70007 3.35267 7.81437 3.52412 7.87152C3.39077 8.02392 3.31457 8.23347 3.33362 8.44302C3.35267 8.65257 3.44792 8.84307 3.60032 8.99547C3.75272 9.12882 3.96227 9.20502 4.17182 9.18597C4.03847 9.54792 4.17182 9.96702 4.53377 10.1575C4.74332 10.2718 4.99097 10.2909 5.21957 10.1956C5.21957 10.329 5.25767 10.4814 5.33387 10.5957C5.44817 10.7862 5.63867 10.9195 5.84822 10.9576C6.11492 11.0148 6.41972 10.9195 6.59117 10.71L6.62927 10.6719C6.72452 11.0148 7.02932 11.2624 7.39127 11.2624C7.75322 11.2624 8.05802 11.0148 8.15327 10.6719L8.19137 10.71C8.38187 10.9195 8.66762 11.0148 8.93432 10.9576C9.14387 10.9195 9.33437 10.7862 9.44867 10.5957C9.52487 10.4623 9.56297 10.329 9.56297 10.1956C9.79157 10.2909 10.0392 10.2718 10.2488 10.1575C10.4393 10.0623 10.5726 9.89082 10.6298 9.68127C10.6869 9.50982 10.6679 9.33837 10.6107 9.18597C10.8203 9.20502 11.0298 9.12882 11.1822 8.99547C11.5061 8.70972 11.5442 8.21442 11.2584 7.89057C11.4108 7.83342 11.5632 7.73817 11.6585 7.58577C11.7728 7.41432 11.8299 7.20477 11.7918 6.99522C11.7537 6.78567 11.6394 6.61422 11.487 6.49992C11.6585 6.34752 11.7537 6.13797 11.7537 5.90937C11.7537 5.58552 11.5442 5.28072 11.2394 5.16642C10.8965 5.05212 10.5726 4.89972 10.2678 4.72827V3.68052C10.2678 3.35667 10.0011 3.08997 9.67727 3.08997H8.49617C8.45807 3.03282 8.43902 2.97567 8.40092 2.89947C8.24852 2.51847 7.86752 2.25177 7.42937 2.25177C6.99122 2.25177 6.61022 2.49942 6.45782 2.89947C6.43877 2.95662 6.40067 3.01377 6.36257 3.08997H5.18147C4.85762 3.08997 4.59092 3.35667 4.59092 3.68052V4.70922C4.28612 4.88067 3.94322 5.03307 3.60032 5.14737C3.29552 5.26167 3.08597 5.56647 3.08597 5.89032C3.08597 6.11892 3.18122 6.32847 3.35267 6.48087C2.97167 6.72852 2.87642 7.22382 3.12407 7.56672Z" fill="#C7C8CA"/>
<path d="M15.5063 7.87152C15.373 8.02392 15.2968 8.23347 15.3158 8.44302C15.3349 8.65257 15.4301 8.84307 15.5825 8.99547C15.7349 9.12882 15.9445 9.20502 16.154 9.18597C16.0207 9.54792 16.154 9.96702 16.516 10.1575C16.7255 10.2718 16.9732 10.2909 17.2018 10.1956C17.2018 10.329 17.2399 10.4814 17.3161 10.5957C17.4304 10.7862 17.6209 10.9195 17.8304 10.9576C18.1162 11.0148 18.4019 10.9195 18.5734 10.71L18.6115 10.6719C18.7067 11.0148 19.0115 11.2624 19.3735 11.2624C19.7354 11.2624 20.0402 11.0148 20.1355 10.6719L20.1736 10.71C20.3641 10.9195 20.6498 11.0148 20.9165 10.9576C21.1261 10.9195 21.3166 10.7862 21.4309 10.5957C21.5071 10.4623 21.5452 10.329 21.5452 10.1956C21.7738 10.2909 22.0214 10.2718 22.231 10.1575C22.4215 10.0623 22.5548 9.89082 22.612 9.68127C22.6691 9.50982 22.6501 9.33837 22.5929 9.18597C22.8025 9.20502 23.012 9.12882 23.1644 8.99547C23.3168 8.86212 23.4121 8.67162 23.4311 8.44302C23.4502 8.23347 23.374 8.04297 23.2406 7.87152C23.393 7.81437 23.5454 7.71912 23.6407 7.56672C23.8883 7.20477 23.7931 6.72852 23.4502 6.48087C23.6216 6.32847 23.7169 6.11892 23.7169 5.89032C23.7169 5.56647 23.5073 5.26167 23.2025 5.14737C22.8596 5.03307 22.5358 4.88067 22.231 4.70922V3.68052C22.231 3.35667 21.9643 3.08997 21.6404 3.08997H20.4593C20.4212 3.03282 20.4022 2.97567 20.3641 2.89947C20.2117 2.51847 19.8307 2.25177 19.3925 2.25177C18.9734 2.25177 18.5734 2.51847 18.421 2.89947C18.4019 2.95662 18.3638 3.01377 18.3257 3.08997H17.1446C16.8208 3.08997 16.5541 3.35667 16.5541 3.68052V4.70922C16.2493 4.88067 15.9064 5.03307 15.5635 5.14737C15.2587 5.26167 15.0491 5.56647 15.0491 5.89032C15.0491 6.11892 15.1444 6.32847 15.3158 6.48087C15.1444 6.59517 15.0301 6.76662 15.011 6.97617C14.9729 7.18572 15.011 7.39527 15.1444 7.56672C15.2015 7.71912 15.3349 7.81437 15.5063 7.87152Z" fill="#C7C8CA"/>
<path d="M26.3652 20.1968C26.3652 23.6639 25.0127 26.9215 22.5552 29.3789C20.0978 31.8364 16.8402 33.1889 13.3731 33.1889C9.906 33.1889 6.64845 31.8364 4.191 29.3789C1.73355 26.9215 0.381 23.6639 0.381 20.1968V12.5578H13.3731H26.3652V20.1968ZM5.3721 5.014C5.35305 4.9759 5.2959 4.9759 5.27685 4.99495C4.74345 5.41405 4.13385 5.90935 3.5814 6.29035C3.44805 6.1951 3.3528 6.0427 3.3528 5.87125C3.3528 5.6617 3.48615 5.49025 3.67665 5.41405C5.1435 4.8997 6.3246 3.92815 6.7056 2.9947C6.8199 2.70895 7.0866 2.5375 7.3914 2.5375C7.6962 2.5375 7.9629 2.70895 8.0772 2.9947C8.4582 3.9472 9.6393 4.91875 11.1062 5.41405C11.2967 5.49025 11.43 5.6617 11.43 5.87125C11.43 6.0427 11.3348 6.1951 11.2014 6.29035C10.649 5.90935 10.0394 5.4331 9.50595 4.99495C9.46785 4.9759 9.42975 4.9759 9.4107 5.014C9.39165 5.0521 9.39165 5.0902 9.4107 5.10925C10.1918 5.83315 10.9728 6.48085 11.2776 6.70945C11.5062 6.86185 11.5634 7.16665 11.411 7.39525C11.3348 7.50955 11.2014 7.58575 11.0681 7.6048C10.4585 6.919 9.7536 6.06175 9.1821 5.37595C9.16305 5.33785 9.1059 5.33784 9.08685 5.35689C9.04875 5.37594 9.04875 5.43309 9.0678 5.45214C9.6774 6.29034 10.4204 7.3 11.03 8.04294C11.2014 8.2525 11.1824 8.5573 10.9919 8.72875C10.8776 8.824 10.7252 8.8621 10.5728 8.84305C10.0584 7.96675 9.35355 6.70944 8.78205 5.64264C8.763 5.60454 8.7249 5.5855 8.6868 5.60455C8.6487 5.6236 8.62965 5.6617 8.6487 5.6998C9.2202 6.919 9.81075 8.2525 10.3061 9.18594C10.4394 9.41455 10.3442 9.71935 10.1156 9.85269C9.9822 9.92889 9.81075 9.9289 9.6774 9.87175C9.27735 8.824 8.763 7.24285 8.28675 5.8522C8.2677 5.8141 8.2296 5.79505 8.1915 5.8141C8.1534 5.83315 8.13435 5.87125 8.13435 5.90935C8.51535 7.35715 8.89635 8.9383 9.23925 10.0432C9.31545 10.3099 9.12495 10.5766 8.85825 10.6147C8.6868 10.6528 8.4963 10.5956 8.40105 10.4623C8.1534 8.9764 7.94385 7.35715 7.75335 5.98555C7.75335 5.94745 7.71525 5.90934 7.67715 5.92839C7.63905 5.92839 7.60095 5.9665 7.62 6.0046C7.67715 7.31905 7.82955 9.6622 7.8867 10.3861V10.4051C7.8867 10.6718 7.6581 10.9004 7.3914 10.9004C7.1247 10.9004 6.8961 10.6718 6.8961 10.4051V10.3861C6.95325 9.6622 7.10565 7.3 7.1628 6.0046C7.1628 5.9665 7.14375 5.92839 7.0866 5.92839C7.0485 5.92839 7.0104 5.94745 7.0104 5.98555C6.80085 7.35715 6.5913 8.9764 6.3627 10.4623C6.2484 10.5956 6.07695 10.6528 5.88645 10.6147C5.61975 10.5575 5.4483 10.2908 5.50545 10.0432C5.84835 8.9383 6.22935 7.35715 6.61035 5.90935C6.6294 5.87125 6.5913 5.83315 6.5532 5.8141C6.5151 5.79505 6.477 5.8141 6.45795 5.8522C5.9817 7.24285 5.46735 8.80495 5.0673 9.87175C4.93395 9.9289 4.78155 9.92889 4.62915 9.85269C4.40055 9.71935 4.3053 9.43359 4.43865 9.18594C4.93395 8.2525 5.5245 6.919 6.096 5.6998C6.11505 5.6617 6.096 5.6236 6.0579 5.60455C6.0198 5.5855 5.9817 5.60454 5.96265 5.64264C5.3721 6.70944 4.6863 7.96675 4.17195 8.84305C4.0386 8.8621 3.8862 8.824 3.75285 8.72875C3.5433 8.5573 3.52425 8.23345 3.71475 8.04294C4.32435 7.28095 5.08635 6.27129 5.6769 5.45214C5.69595 5.41404 5.69595 5.37594 5.65785 5.35689C5.61975 5.33784 5.58165 5.33785 5.5626 5.37595C4.9911 6.06175 4.28625 6.919 3.67665 7.6048C3.5433 7.58575 3.429 7.50955 3.33375 7.39525C3.18135 7.16665 3.2385 6.86185 3.4671 6.70945C3.7719 6.48085 4.55295 5.83315 5.334 5.10925C5.39115 5.10925 5.39115 5.0521 5.3721 5.014ZM4.8387 3.6805C4.8387 3.50905 4.97205 3.3757 5.1435 3.3757H6.22935C5.92455 3.81385 5.42925 4.252 4.8387 4.61395V3.6805ZM9.62025 3.3757C9.7917 3.3757 9.92505 3.50905 9.92505 3.6805V4.633C9.3345 4.27105 8.85825 3.8329 8.5344 3.39475H9.62025V3.3757ZM17.3546 5.014C17.3355 4.9759 17.2784 4.9759 17.2593 4.99495C16.7259 5.41405 16.1163 5.90935 15.5639 6.29035C15.4305 6.1951 15.3353 6.0427 15.3353 5.87125C15.3353 5.6617 15.4686 5.49025 15.6591 5.41405C17.126 4.8997 18.3071 3.92815 18.6881 2.9947C18.8024 2.70895 19.0691 2.5375 19.3739 2.5375C19.6787 2.5375 19.9454 2.70895 20.0597 2.9947C20.4407 3.9472 21.6218 4.91875 23.0886 5.41405C23.2791 5.49025 23.4125 5.6617 23.4125 5.87125C23.4125 6.0427 23.3172 6.1951 23.1839 6.29035C22.6314 5.90935 22.0218 5.4331 21.4884 4.99495C21.4503 4.9759 21.4122 4.9759 21.3932 5.014C21.3741 5.0521 21.3741 5.0902 21.3932 5.10925C22.1742 5.83315 22.9553 6.48085 23.2601 6.70945C23.4887 6.86185 23.5458 7.16665 23.3934 7.39525C23.3172 7.50955 23.1839 7.58575 23.0505 7.6048C22.4409 6.919 21.7361 6.06175 21.1646 5.37595C21.1455 5.33785 21.0884 5.33784 21.0693 5.35689C21.0312 5.37594 21.0312 5.43309 21.0503 5.45214C21.6599 6.29034 22.4028 7.3 23.0124 8.04294C23.1839 8.2525 23.1839 8.5573 22.9743 8.72875C22.86 8.824 22.7076 8.8621 22.5552 8.84305C22.0409 7.96675 21.336 6.70944 20.7645 5.64264C20.7455 5.60454 20.7074 5.5855 20.6693 5.60455C20.6312 5.6236 20.6121 5.6617 20.6312 5.6998C21.2027 6.919 21.7932 8.2525 22.2885 9.18594C22.4219 9.41455 22.3266 9.71935 22.098 9.85269C21.9647 9.92889 21.7932 9.9289 21.6599 9.87175C21.2598 8.824 20.7455 7.24285 20.2692 5.8522C20.2502 5.8141 20.2121 5.79505 20.174 5.8141C20.1359 5.83315 20.1168 5.87125 20.1168 5.90935C20.4978 7.35715 20.8788 8.9383 21.2217 10.0432C21.2979 10.3099 21.1074 10.5766 20.8407 10.6147C20.6693 10.6528 20.4788 10.5956 20.3645 10.4623C20.1168 8.9764 19.9073 7.35715 19.7168 5.98555C19.7168 5.94745 19.6787 5.90934 19.6406 5.92839C19.6025 5.92839 19.5644 5.9665 19.5644 6.0046C19.6215 7.31905 19.7739 9.6622 19.8311 10.3861V10.4051C19.8311 10.6718 19.6025 10.9004 19.3358 10.9004C19.0691 10.9004 18.8405 10.6718 18.8405 10.4051V10.3861C18.8976 9.6622 19.05 7.3 19.1072 6.0046C19.1072 5.9665 19.0881 5.92839 19.05 5.92839C19.0119 5.92839 18.9738 5.94745 18.9738 5.98555C18.7643 7.35715 18.5547 8.9764 18.3261 10.4623C18.2118 10.5956 18.0404 10.6528 17.8689 10.6147C17.6022 10.5575 17.4308 10.2908 17.4879 10.0432C17.8308 8.9383 18.2118 7.35715 18.5928 5.90935C18.6119 5.87125 18.5738 5.83315 18.5357 5.8141C18.4976 5.79505 18.4595 5.8141 18.4404 5.8522C17.9642 7.24285 17.4498 8.80495 17.0498 9.87175C16.9164 9.9289 16.764 9.92889 16.6116 9.85269C16.383 9.71935 16.2878 9.43359 16.4211 9.18594C16.9164 8.2525 17.507 6.919 18.0785 5.6998C18.0975 5.6617 18.0785 5.6236 18.0404 5.60455C18.0023 5.5855 17.9642 5.60454 17.9451 5.64264C17.3736 6.70944 16.6688 7.96675 16.1544 8.84305C16.0211 8.8621 15.8687 8.824 15.7353 8.72875C15.5258 8.5573 15.5067 8.23345 15.6972 8.04294C16.3068 7.28095 17.0688 6.27129 17.6594 5.45214C17.6784 5.41404 17.6784 5.37594 17.6403 5.35689C17.6022 5.33784 17.5641 5.33785 17.5451 5.37595C16.9736 6.06175 16.2687 6.919 15.6591 7.6048C15.5258 7.58575 15.4115 7.50955 15.3162 7.39525C15.1638 7.16665 15.221 6.86185 15.4496 6.70945C15.7544 6.48085 16.5354 5.83315 17.3165 5.10925C17.3736 5.10925 17.3736 5.0521 17.3546 5.014ZM16.8212 3.6805C16.8212 3.50905 16.9545 3.3757 17.126 3.3757H18.2118C17.907 3.81385 17.4117 4.252 16.8212 4.61395V3.6805ZM21.6027 3.3757C21.7742 3.3757 21.9075 3.50905 21.9075 3.6805V4.633C21.317 4.27105 20.8217 3.8329 20.5169 3.39475H21.6027V3.3757ZM13.3731 0.499146C7.86765 0.499146 2.99085 1.1659 0 2.1565V12.5387V20.1778C0 27.5692 5.9817 33.5509 13.3731 33.5509C20.7645 33.5509 26.7462 27.5692 26.7462 20.1778V12.5387V2.1565C23.7554 1.1659 18.8786 0.499146 13.3731 0.499146Z" fill="black"/>
<path d="M32.9758 7.01422H35.1856C35.6237 7.01422 35.9476 7.03327 36.1571 7.07137C36.3667 7.10947 36.5572 7.18567 36.7286 7.29997C36.9001 7.41427 37.0334 7.56667 37.1477 7.75717C37.262 7.94767 37.3192 8.15722 37.3192 8.40487C37.3192 8.67157 37.243 8.90017 37.1096 9.10972C36.9763 9.31927 36.7858 9.49072 36.5381 9.60502C36.881 9.70027 37.1287 9.87172 37.3192 10.1003C37.4906 10.3289 37.5859 10.6147 37.5859 10.9385C37.5859 11.1862 37.5287 11.4338 37.4144 11.6624C37.3001 11.891 37.1287 12.0815 36.9382 12.2339C36.7286 12.3673 36.481 12.4625 36.1952 12.5006C36.0047 12.5197 35.5666 12.5387 34.8427 12.5387H32.9567V7.01422H32.9758ZM34.0807 7.92862V9.20497H34.8046C35.2427 9.20497 35.5094 9.20497 35.6237 9.18592C35.8142 9.16687 35.9666 9.09067 36.0809 8.99542C36.1952 8.90017 36.2524 8.74777 36.2524 8.55727C36.2524 8.38582 36.2143 8.25247 36.119 8.13817C36.0238 8.02387 35.8904 7.96672 35.6999 7.94767C35.5856 7.92862 35.2618 7.92862 34.7474 7.92862H34.0807ZM34.0807 10.1384V11.6243H35.1094C35.5094 11.6243 35.7571 11.6053 35.8714 11.5862C36.0428 11.5481 36.1762 11.491 36.2714 11.3576C36.3667 11.2243 36.4238 11.0909 36.4238 10.8814C36.4238 10.7099 36.3857 10.5766 36.3095 10.4623C36.2333 10.348 36.119 10.2718 35.9666 10.2146C35.8142 10.1575 35.4904 10.1384 34.976 10.1384H34.0807Z" fill="black"/>
<path d="M43.9293 12.5387H42.7101L42.2339 11.2814H40.0241L39.5669 12.5387H38.3858L40.5384 7.01422H41.7195L43.9293 12.5387ZM41.891 10.348L41.129 8.29057L40.386 10.348H41.891Z" fill="black"/>
<path d="M44.9771 12.5387V7.05231H46.082V11.6053H48.8633V12.5387H44.9771Z" fill="black"/>
<path d="M50.1014 12.5387V7.05231H51.2254V11.6053H53.9876V12.5387H50.1014Z" fill="black"/>
<path d="M55.2067 12.5387V7.01422H59.3024V7.94767H56.3306V9.16687H59.1119V10.1003H56.3306V11.6053H59.4167V12.5387H55.2067Z" fill="black"/>
<path d="M60.7695 12.5387V7.01422H63.1317C63.7223 7.01422 64.1414 7.07137 64.4271 7.16662C64.6938 7.26187 64.9034 7.43332 65.0748 7.70002C65.2272 7.94767 65.3225 8.25247 65.3225 8.57632C65.3225 8.99542 65.2082 9.33832 64.9605 9.60502C64.7129 9.87172 64.3509 10.0432 63.8747 10.1194C64.1223 10.2527 64.3128 10.4051 64.4652 10.5766C64.6176 10.748 64.8272 11.0528 65.0939 11.4719L65.7606 12.5578H64.4271L63.627 11.3576C63.3413 10.9195 63.1508 10.6528 63.0365 10.5385C62.9222 10.4242 62.8269 10.348 62.6936 10.3099C62.5793 10.2718 62.3888 10.2527 62.1411 10.2527H61.9125V12.5578H60.7695V12.5387ZM61.8935 9.35737H62.7126C63.246 9.35737 63.5889 9.33832 63.7223 9.28117C63.8556 9.24307 63.9509 9.16687 64.0271 9.05257C64.1033 8.93827 64.1414 8.80492 64.1414 8.63347C64.1414 8.44297 64.0842 8.29057 63.989 8.17627C63.8937 8.06197 63.7413 7.98577 63.5699 7.96672C63.4746 7.94767 63.2079 7.94767 62.7507 7.94767H61.8744V9.35737H61.8935Z" fill="black"/>
<path d="M66.7512 7.01422H67.8561V10.0051C67.8561 10.4813 67.8752 10.7861 67.8942 10.9195C67.9323 11.1481 68.0466 11.3195 68.2371 11.4719C68.4086 11.6053 68.6562 11.6815 68.9801 11.6815C69.3039 11.6815 69.5325 11.6243 69.704 11.491C69.8754 11.3576 69.9516 11.2052 69.9897 11.0147C70.0278 10.8242 70.0469 10.5194 70.0469 10.0813V7.03327H71.1708V9.92887C71.1708 10.5956 71.1327 11.0528 71.0756 11.3386C71.0184 11.6053 70.9041 11.8529 70.7327 12.0244C70.5803 12.2149 70.3517 12.3673 70.085 12.4816C69.8183 12.5959 69.4563 12.653 69.0182 12.653C68.4848 12.653 68.0847 12.5959 67.818 12.4625C67.5513 12.3482 67.3227 12.1768 67.1703 11.9863C67.0179 11.7958 66.9036 11.5862 66.8655 11.3767C66.7893 11.0528 66.7512 10.5956 66.7512 9.96697V7.01422Z" fill="black"/>
<path d="M72.7518 12.5387V7.01422H74.5425C75.2283 7.01422 75.6664 7.03327 75.876 7.09042C76.1998 7.16662 76.4665 7.35712 76.6761 7.62382C76.8856 7.90957 76.9999 8.25247 76.9999 8.69062C76.9999 9.03352 76.9428 9.31927 76.8094 9.54787C76.6951 9.77647 76.5237 9.96697 76.3332 10.1003C76.1427 10.2337 75.9522 10.3289 75.7617 10.367C75.495 10.4242 75.114 10.4432 74.5996 10.4432H73.8757V12.5197H72.7518V12.5387ZM73.8567 7.94767V9.50977H74.4663C74.9044 9.50977 75.1902 9.47167 75.3426 9.41452C75.495 9.35737 75.6093 9.26212 75.6855 9.14782C75.7617 9.03352 75.8188 8.88112 75.8188 8.70967C75.8188 8.50012 75.7617 8.34772 75.6474 8.21437C75.5331 8.08102 75.3807 8.00482 75.1902 7.96672C75.0568 7.94767 74.7901 7.92862 74.3901 7.92862H73.8567V7.94767Z" fill="black"/>
<path d="M32.9761 21.5494V16.0249H34.1V18.4824L36.3479 16.0249H37.8529L35.7764 18.1776L37.9672 21.5494H36.5194L34.9954 18.9586L34.1 19.873V21.5494H32.9761Z" fill="black"/>
<path d="M39.015 18.8062C39.015 18.2347 39.0912 17.7775 39.2627 17.3965C39.396 17.1107 39.5675 16.8631 39.777 16.6345C39.9866 16.4059 40.2342 16.2535 40.5009 16.1392C40.8438 15.9868 41.2439 15.9296 41.682 15.9296C42.5012 15.9296 43.1489 16.1773 43.6442 16.6916C44.1395 17.206 44.3681 17.8918 44.3681 18.8062C44.3681 19.7015 44.1204 20.3873 43.6442 20.9017C43.1679 21.416 42.5202 21.6637 41.7011 21.6637C40.8819 21.6637 40.2342 21.416 39.7389 20.9207C39.2436 20.4254 39.015 19.6825 39.015 18.8062ZM40.158 18.7681C40.158 19.3967 40.3104 19.873 40.5962 20.1968C40.8819 20.5207 41.2439 20.6731 41.7011 20.6731C42.1583 20.6731 42.5012 20.5207 42.7869 20.1968C43.0727 19.873 43.206 19.3967 43.206 18.749C43.206 18.1204 43.0727 17.6441 42.7869 17.3393C42.5012 17.0345 42.1392 16.8631 41.682 16.8631C41.2248 16.8631 40.8438 17.0155 40.5771 17.3393C40.3104 17.6632 40.158 18.1394 40.158 18.7681Z" fill="black"/>
<path d="M45.9304 21.5494V16.0249H47.6068L48.6165 19.7968L49.6071 16.0249H51.2835V21.5494H50.2548V17.206L49.1499 21.5494H48.0831L46.9972 17.206V21.5494H45.9304Z" fill="black"/>
<path d="M53.0547 21.5494V16.0249H54.7311L55.7408 19.7968L56.7314 16.0249H58.4078V21.5494H57.3791V17.206L56.2742 21.5494H55.2074L54.1215 17.206V21.5494H53.0547Z" fill="black"/>
<path d="M60.1981 16.0249H61.3221V19.0158C61.3221 19.492 61.3411 19.7968 61.3602 19.9302C61.4173 20.1588 61.5126 20.3302 61.7031 20.4826C61.8745 20.616 62.1222 20.6922 62.446 20.6922C62.7699 20.6922 62.9985 20.635 63.1699 20.5017C63.3414 20.3683 63.4366 20.2159 63.4557 20.0254C63.4747 19.8349 63.5128 19.5301 63.5128 19.092V16.044H64.6368V18.9205C64.6368 19.5873 64.5987 20.0445 64.5415 20.3302C64.4844 20.5969 64.3701 20.8446 64.2177 21.016C64.0653 21.1875 63.8367 21.3589 63.57 21.4732C63.3033 21.5875 62.9413 21.6447 62.5032 21.6447C61.9698 21.6447 61.5697 21.5875 61.303 21.4542C61.0363 21.3399 60.8077 21.1684 60.6553 20.9779C60.5029 20.7874 60.3886 20.5779 60.3505 20.3683C60.2743 20.0445 60.2362 19.5873 60.2362 18.9586V16.0249H60.1981Z" fill="black"/>
<path d="M66.4846 21.5494V16.0249H67.5705L69.8374 19.7206V16.0249H70.8661V21.5494H69.7422L67.5133 17.9299V21.5304H66.4846V21.5494Z" fill="black"/>
<path d="M72.7526 21.5494V16.0249H76.8484V16.9584H73.8766V18.1776H76.6579V19.111H73.8766V20.616H76.9627V21.5494H72.7526Z" fill="black"/>
</svg>
